<svg xmlns="http://www.w3.org/2000/svg" viewBox="0 0 720 420" role="img" aria-label="Fan-out time: send → last member has it (median)">
<title>Fan-out time: send → last member has it (median)</title>
<style>
  .bg { fill: #fcfcfb } .t1 { fill: #0b0b0b } .t2 { fill: #52514e } .grid { stroke: #e4e3df } .axis { stroke: #8a8984 }
  .s1 { stroke: #2a78d6; fill: #2a78d6 } .s2 { stroke: #eb6834; fill: #eb6834 } .s3 { stroke: #8a8984; fill: #8a8984 }
  .whisker { stroke: #0b0b0b } .gap { stroke: #fcfcfb }
  @media (prefers-color-scheme: dark) {
    .bg { fill: #1a1a19 } .t1 { fill: #ffffff } .t2 { fill: #c3c2b7 } .grid { stroke: #34332f } .axis { stroke: #77766f }
    .s1 { stroke: #3987e5; fill: #3987e5 } .s2 { stroke: #d95926; fill: #d95926 } .s3 { stroke: #9a9992; fill: #9a9992 }
    .whisker { stroke: #ffffff } .gap { stroke: #1a1a19 }
  }
  text { font-family: system-ui, -apple-system, "Segoe UI", sans-serif }</style>
<rect class="bg" width="720" height="420"/>
<text class="t1" x="70" y="26" font-size="17" font-weight="600">Fan-out time: send → last member has it (median)</text>
<text class="t2" x="70" y="46" font-size="12.5">100 messages per point; solid = plain text, dashed = end-to-end encrypted</text>
<line class="s1" x1="70" y1="64" x2="92" y2="64" stroke-width="2.5" /><text class="t1" x="98" y="68" font-size="12.5">WebSocket</text>
<line class="s1" x1="183" y1="64" x2="205" y2="64" stroke-width="2.5" stroke-dasharray="6 4"/><text class="t1" x="211" y="68" font-size="12.5">WebSocket + E2E</text>
<line class="s2" x1="338" y1="64" x2="360" y2="64" stroke-width="2.5" /><text class="t1" x="366" y="68" font-size="12.5">MQTT</text>
<line class="s2" x1="416" y1="64" x2="438" y2="64" stroke-width="2.5" stroke-dasharray="6 4"/><text class="t1" x="444" y="68" font-size="12.5">MQTT + E2E</text>
<line class="grid" x1="70" x2="696" y1="364" y2="364"/>
<text class="t2" x="62" y="368" font-size="11.5" text-anchor="end">0</text>
<line class="grid" x1="70" x2="696" y1="294.5" y2="294.5"/>
<text class="t2" x="62" y="298.5" font-size="11.5" text-anchor="end">2</text>
<line class="grid" x1="70" x2="696" y1="225" y2="225"/>
<text class="t2" x="62" y="229" font-size="11.5" text-anchor="end">4</text>
<line class="grid" x1="70" x2="696" y1="155.5" y2="155.5"/>
<text class="t2" x="62" y="159.5" font-size="11.5" text-anchor="end">6</text>
<line class="grid" x1="70" x2="696" y1="86" y2="86"/>
<text class="t2" x="62" y="90" font-size="11.5" text-anchor="end">8</text>
<line class="axis" x1="70" x2="696" y1="364" y2="364"/>
<text class="t2" x="70" y="382" font-size="11.5" text-anchor="middle">0</text>
<text class="t2" x="195.2" y="382" font-size="11.5" text-anchor="middle">10</text>
<text class="t2" x="320.4" y="382" font-size="11.5" text-anchor="middle">20</text>
<text class="t2" x="445.59999999999997" y="382" font-size="11.5" text-anchor="middle">30</text>
<text class="t2" x="570.8" y="382" font-size="11.5" text-anchor="middle">40</text>
<text class="t2" x="696" y="382" font-size="11.5" text-anchor="middle">50</text>
<path class="s1" d="M95.0,304.8L132.6,299.3L195.2,307.1L320.4,285.6L696.0,291.1" stroke-width="2" stroke-linejoin="round"  style="fill:none"><title>WebSocket</title></path><circle class="bg" cx="95.0" cy="304.8" r="6.5"/><circle class="s1" cx="95.0" cy="304.8" r="4.5" style="stroke:none"><title>WebSocket: 1.7 at 2</title></circle><circle class="bg" cx="132.6" cy="299.3" r="6.5"/><circle class="s1" cx="132.6" cy="299.3" r="4.5" style="stroke:none"><title>WebSocket: 1.86 at 5</title></circle><circle class="bg" cx="195.2" cy="307.1" r="6.5"/><circle class="s1" cx="195.2" cy="307.1" r="4.5" style="stroke:none"><title>WebSocket: 1.64 at 10</title></circle><circle class="bg" cx="320.4" cy="285.6" r="6.5"/><circle class="s1" cx="320.4" cy="285.6" r="4.5" style="stroke:none"><title>WebSocket: 2.25 at 20</title></circle><circle class="bg" cx="696.0" cy="291.1" r="6.5"/><circle class="s1" cx="696.0" cy="291.1" r="4.5" style="stroke:none"><title>WebSocket: 2.1 at 50</title></circle>
<path class="s1" d="M95.0,287.4L132.6,295.1L195.2,291.4L320.4,265.1L696.0,229.1" stroke-width="2" stroke-linejoin="round" stroke-dasharray="6 4" style="fill:none"><title>WebSocket + E2E</title></path><circle class="bg" cx="95.0" cy="287.4" r="6.5"/><circle class="s1" cx="95.0" cy="287.4" r="4.5" style="stroke:none"><title>WebSocket + E2E: 2.21 at 2</title></circle><circle class="bg" cx="132.6" cy="295.1" r="6.5"/><circle class="s1" cx="132.6" cy="295.1" r="4.5" style="stroke:none"><title>WebSocket + E2E: 1.98 at 5</title></circle><circle class="bg" cx="195.2" cy="291.4" r="6.5"/><circle class="s1" cx="195.2" cy="291.4" r="4.5" style="stroke:none"><title>WebSocket + E2E: 2.09 at 10</title></circle><circle class="bg" cx="320.4" cy="265.1" r="6.5"/><circle class="s1" cx="320.4" cy="265.1" r="4.5" style="stroke:none"><title>WebSocket + E2E: 2.85 at 20</title></circle><circle class="bg" cx="696.0" cy="229.1" r="6.5"/><circle class="s1" cx="696.0" cy="229.1" r="4.5" style="stroke:none"><title>WebSocket + E2E: 3.88 at 50</title></circle>
<path class="s2" d="M95.0,287.7L132.6,250.0L195.2,279.3L320.4,207.0L696.0,122.0" stroke-width="2" stroke-linejoin="round"  style="fill:none"><title>MQTT</title></path><circle class="bg" cx="95.0" cy="287.7" r="6.5"/><circle class="s2" cx="95.0" cy="287.7" r="4.5" style="stroke:none"><title>MQTT: 2.2 at 2</title></circle><circle class="bg" cx="132.6" cy="250.0" r="6.5"/><circle class="s2" cx="132.6" cy="250.0" r="4.5" style="stroke:none"><title>MQTT: 3.28 at 5</title></circle><circle class="bg" cx="195.2" cy="279.3" r="6.5"/><circle class="s2" cx="195.2" cy="279.3" r="4.5" style="stroke:none"><title>MQTT: 2.44 at 10</title></circle><circle class="bg" cx="320.4" cy="207.0" r="6.5"/><circle class="s2" cx="320.4" cy="207.0" r="4.5" style="stroke:none"><title>MQTT: 4.52 at 20</title></circle><circle class="bg" cx="696.0" cy="122.0" r="6.5"/><circle class="s2" cx="696.0" cy="122.0" r="4.5" style="stroke:none"><title>MQTT: 6.96 at 50</title></circle>
<path class="s2" d="M95.0,261.5L132.6,240.7L195.2,239.7L320.4,184.0L696.0,98.4" stroke-width="2" stroke-linejoin="round" stroke-dasharray="6 4" style="fill:none"><title>MQTT + E2E</title></path><circle class="bg" cx="95.0" cy="261.5" r="6.5"/><circle class="s2" cx="95.0" cy="261.5" r="4.5" style="stroke:none"><title>MQTT + E2E: 2.95 at 2</title></circle><circle class="bg" cx="132.6" cy="240.7" r="6.5"/><circle class="s2" cx="132.6" cy="240.7" r="4.5" style="stroke:none"><title>MQTT + E2E: 3.55 at 5</title></circle><circle class="bg" cx="195.2" cy="239.7" r="6.5"/><circle class="s2" cx="195.2" cy="239.7" r="4.5" style="stroke:none"><title>MQTT + E2E: 3.58 at 10</title></circle><circle class="bg" cx="320.4" cy="184.0" r="6.5"/><circle class="s2" cx="320.4" cy="184.0" r="4.5" style="stroke:none"><title>MQTT + E2E: 5.18 at 20</title></circle><circle class="bg" cx="696.0" cy="98.4" r="6.5"/><circle class="s2" cx="696.0" cy="98.4" r="4.5" style="stroke:none"><title>MQTT + E2E: 7.64 at 50</title></circle>
<text class="t2" x="383" y="406" font-size="12.5" text-anchor="middle">group size (members, all online)</text>
<text class="t2" transform="translate(18 225) rotate(-90)" font-size="12.5" text-anchor="middle">ms</text>
</svg>
